<svg id="Layer_1" data-name="Layer 1" xmlns="http://www.w3.org/2000/svg" viewBox="0 0 400 400"><path fill="#9AE19D" d="M238.93,222.3c-1.2,0-2.56.55-3.61-.21.93-.88,3-1.23,4.28-1.69.81-.3,1.79-1,1.45-1.76-.24-.58-1-.65-1.65-.63-7.08.19-14.28,1.68-21.34.51s-11.41-5.67-15.28-11.2c.88-1.09,1.65-2.35,2.14-3.06,1.35-1.94,2.53-4,3.68-6a44.94,44.94,0,0,0,4.58-12.11,7.76,7.76,0,0,0,.22-3.1,7.59,7.59,0,0,1-.19-1.06c0-1.05.74-1.95,1-3s-.84-2.4-1.67-1.75a19.54,19.54,0,0,0,1.66-6.5,7.23,7.23,0,0,1-2.48,1.5,41.17,41.17,0,0,0,.85-6.64c-1-.1-1.6,1-2,1.87s-1.28,1.88-2.19,1.52a18.15,18.15,0,0,0,.81-10.16c-2.06,1.32-1.47,5.2-3.77,6a27.18,27.18,0,0,0,.32-12.2l-2.42,4.63c-2.08-2.35,0-6.86-2.43-8.81a29.62,29.62,0,0,1-7.53,12c-1.21,1.18-2.59,1.38-2.54,3.07s.11,3.49.16,5.24q.24,8.41.49,16.83c.07,2.26.72,4.91-.91,6.72a19.05,19.05,0,0,0-3.4,4.87,16.81,16.81,0,0,0-12.69.56,31.84,31.84,0,0,0-6.14,3.57,1.91,1.91,0,0,1-.52.33,1.82,1.82,0,0,1-.7.07l-4.81-.08a1.35,1.35,0,0,0,.84.89,7.38,7.38,0,0,0,1.23.31,28.08,28.08,0,0,1,15.15,9.69l-.14.19a37.22,37.22,0,0,0-3.83,7.68c-1.25,3-2.63,6.14-5,8.39-3,2.85-7.48,3.86-10.32,6.89-2.6,2.78-3.38,6.73-4.46,10.37a52.61,52.61,0,0,1-7.58,15.53c4.07.28,7.42-3,10.16-6a7,7,0,0,1-1.37,6c.32,1.22,2.18.39,3-.6q2.43-3.1,4.88-6.2c.19,1.77.37,3.54.56,5.32a13.86,13.86,0,0,0,4.88-8.19c.42,1.51.83,3,1.24,4.51a11.28,11.28,0,0,0,3.85-6.12,5.71,5.71,0,0,0,2,2.25,7.37,7.37,0,0,0,2-3.51,1.86,1.86,0,0,0,2.61-.35,6.44,6.44,0,0,0,1.11-2.71,20.06,20.06,0,0,1,6.56-10.16c2.14-1.76,4.64-3.13,6.61-5.09a7.09,7.09,0,0,0,2.4-5.18,73.61,73.61,0,0,1,10.83.39c7.35,1.13,12.22,7.86,15,14.2.34.76,1.12,3,2.15,3.06,2.17.22.08-4.35-.15-5.17a1.46,1.46,0,0,1-.09-.68c.12-.58.86-.79,1.46-.73,1.93.2,3.67,1.67,5.5,1.73a1.15,1.15,0,0,0,.89-.25c.43-.45,0-1.18-.44-1.63-.26-.27-3.07-3.45-2.53-3.7,1.38-.62,5.11,1.56,5.67.7.29-.46-.11-1.14.17-1.61.42-.69,4.59.57,3.46-1.69a1.74,1.74,0,0,0-.85-.68l-4.88-2.39c1.11-.75,2.55-.73,3.86-1,1-.25,3.2-1.43,2.32-2.86A2.19,2.19,0,0,0,238.93,222.3Z"/></svg>
