<svg id="Layer_1" data-name="Layer 1" xmlns="http://www.w3.org/2000/svg" viewBox="0 0 400 400"><path opacity="0.6"  fill="#0077B6" d="M211.51,238.67c-18.82,0-36.52-.77-49.83-2.16-21.5-2.25-21.5-5-21.5-6.2s0-3.94,21.5-6.19c13.31-1.39,31-2.16,49.83-2.16s36.52.77,49.83,2.16c21.5,2.25,21.5,5,21.5,6.19s0,3.95-21.5,6.2C248,237.9,230.33,238.67,211.51,238.67Zm-69.31-8.36c1.48,2.62,26.76,6.36,69.31,6.36s67.83-3.74,69.31-6.36c-1.48-2.61-26.76-6.35-69.31-6.35S143.68,227.7,142.2,230.31Zm138.65.06h0Z"/><path opacity="0.6"  fill="#0077B6" d="M211.34,172.42c-18.86,0-36.59-.62-49.94-1.75-21.56-1.82-21.56-4-21.56-5.2s0-3.38,21.56-5.2c13.34-1.13,31.08-1.75,49.94-1.75s36.59.62,49.93,1.75c21.57,1.82,21.57,4,21.57,5.2s0,3.38-21.57,5.2C247.93,171.8,230.2,172.42,211.34,172.42ZM142,165.47c3.1,2.14,27.93,4.95,69.32,4.95s66.22-2.81,69.31-4.95c-3.09-2.14-27.92-4.95-69.31-4.95S145.12,163.33,142,165.47Zm138.88.22h0Z"/><path opacity="0.6" fill="#0077B6"  d="M302.14,253.75c1.47-3.78,1.64-9.16-1.45-12a6.53,6.53,0,0,0-5.69-1.59,6,6,0,0,0-4.37,3.37,6.41,6.41,0,0,0,3.3,8.42,2,2,0,0,0,1.51-3.71,2.22,2.22,0,0,1-1.17-1.28,2.26,2.26,0,0,1,0-1.73,2.06,2.06,0,0,1,1.52-1.15,2.61,2.61,0,0,1,2.21.6c1.56,1.45,1.45,5,.43,7.65-.62,1.6-3.37,3.09-6,2.6-2.86-.53-4.43-3.3-4.43-7.81,0-5.25,1.85-16.74,3.82-28.9,3.69-22.84,6-38.19,4.07-43.25-1.12-3-2.77-4.61-4.91-4.83a4.83,4.83,0,0,0-2.17.29,63.5,63.5,0,0,0,1.14-7.25c1.26-13-2.17-23.67-9.92-30.81a86,86,0,0,0-38.53-20.07c-1.69-.92-5.86-2.63-14.42-3.59-1.88-.41-9.93-2.53-9.1-8.83a8.2,8.2,0,0,1,7.09-6.75,9,9,0,0,1,7,1.94,4.73,4.73,0,0,1,1.65,3.84,4.58,4.58,0,0,1-1.68,3.2,4.74,4.74,0,0,1-4.62,1.19,2.68,2.68,0,0,1-1.59-1.32c0-.13-.08-.29.12-.61a2.52,2.52,0,0,1,2.82-1.4A2,2,0,1,0,230,96.16a6.52,6.52,0,0,0-7.46,3.06,4.64,4.64,0,0,0-.53,4,6.52,6.52,0,0,0,4,3.79,8.69,8.69,0,0,0,8.59-1.9,8.52,8.52,0,0,0,3.09-6.09,8.67,8.67,0,0,0-3-7,12,12,0,0,0-5-2.59A7.49,7.49,0,1,0,219.5,78.61V78c0-10.3-2.57-21.39-8.21-21.39s-8.2,11-8.22,21.28a7.49,7.49,0,1,0-9.6,11.48A12.19,12.19,0,0,0,188.32,92a8.88,8.88,0,0,0,8.7,15,6.48,6.48,0,0,0,4-3.78,4.66,4.66,0,0,0-.53-4A6.55,6.55,0,0,0,193,96.12a2,2,0,0,0,1.23,3.81,2.52,2.52,0,0,1,2.86,1.39.61.61,0,0,1,.12.61,2.68,2.68,0,0,1-1.59,1.32,4.77,4.77,0,0,1-4.62-1.19,4.58,4.58,0,0,1-1.68-3.21A4.72,4.72,0,0,1,191,95a8.94,8.94,0,0,1,7-1.94,8.18,8.18,0,0,1,7.09,6.75c.83,6.32-7.13,8.41-9.08,8.82-8.58,1-12.74,2.67-14.44,3.59A86.19,86.19,0,0,0,143,132.31c-7.75,7.14-11.18,17.8-9.92,30.82a63.31,63.31,0,0,0,1.14,7.24,5,5,0,0,0-2.17-.29c-2.14.22-3.79,1.85-4.91,4.83-1.9,5.07.38,20.42,4.07,43.25,2,12.17,3.82,23.66,3.82,28.91,0,3-1,5.6-2.61,6.92a4.69,4.69,0,0,1-4.12.85c-2.34-.48-3.34-2.71-3.73-4-.75-2.49-.4-5.36.79-6.55a1.79,1.79,0,0,1,2-.34c1.2.36,1.32.85,1.36,1,.24.92-.53,2.62-1.75,3.88a2,2,0,1,0,2.86,2.78c1.73-1.77,3.49-4.85,2.77-7.66a5.44,5.44,0,0,0-4.07-3.85,5.77,5.77,0,0,0-6,1.34c-2.25,2.24-3,6.57-1.79,10.53a9.26,9.26,0,0,0,6.08,6.57,9.1,9.1,0,0,0-3.83,3.7c-2.34,4-2.28,9.41.17,15.24a142.33,142.33,0,0,0,10.55,19.41,2,2,0,0,0,1.49.93,1,1,0,0,0-.34.47h0v9.9h.07a.48.48,0,0,0-.07.2.59.59,0,0,0,.12.34,2,2,0,0,0-.07,1.5c1.6,4.44,6,7.84,11.48,8.88,4.47.85,9.16.22,13.58-.49,1.39-.23,2.82-.51,4.2-.78,6.3-1.24,12.31-2.41,17.36.48a11.33,11.33,0,0,0-4,5.28,1.74,1.74,0,0,0,0,.22c-.06.37-.54,3.67,1.47,5.91a6,6,0,0,0,5.06,1.81c3.11-.19,5.51-1.79,6.42-4.29s.18-5.44-1.94-8.15a33.28,33.28,0,0,1,11.53-1.51,18.23,18.23,0,0,1,6.11,1,9.28,9.28,0,0,0-2,3.33c-1.42,4.34.06,9.23,2.31,11.44a4.59,4.59,0,0,0,3.19,1.43,3.84,3.84,0,0,0,1.24-.21c2.71-.95,4.73-6.55,4-11.09a10.83,10.83,0,0,0-1.89-4.66,21.52,21.52,0,0,1,5.27-1.2,27.43,27.43,0,0,1,12.41,1.43c-2.13,2.72-2.86,5.66-2,8.17s3.31,4.1,6.42,4.29a6,6,0,0,0,5.18-1.94,7.65,7.65,0,0,0,1.35-5.78h0c-.38-2.28-2.21-4.16-4-5.5,5-2.78,11.59-2.21,17.55-1.2l2.47.44c7.49,1.33,16.81,3,24-.16,3-1.3,6.12-5,6.12-8.34a.92.92,0,0,0,.44-.67.48.48,0,0,0-.07-.2h.07v-9.9h0a.88.88,0,0,0-.31-.44,2,2,0,0,0,1.46-.92,142.42,142.42,0,0,0,10.55-19.41c2.45-5.84,2.51-11.25.17-15.25a9.09,9.09,0,0,0-3.83-3.68A8.76,8.76,0,0,0,302.14,253.75ZM234.82,114.54A141.21,141.21,0,0,1,272.91,148c9.48,12.09,8.37,27.32,8.36,27.47a1.21,1.21,0,0,0,0,.19L282.47,296a147.76,147.76,0,0,0-15.42-2c.9-35,1.36-71.91-.13-108.54-.19-4.79-.5-9.77-.95-15.23-.1-1.26-.18-2.53-.27-3.79-.46-6.81-.93-13.86-4.17-20.41-2.74-5.52-6.79-11.23-12.75-17.94a117.72,117.72,0,0,0-14.14-13.58ZM225.13,80a3.5,3.5,0,1,1-3.49,3.5A3.5,3.5,0,0,1,225.13,80Zm-3.74,10a12.66,12.66,0,0,0-3.85,2.5,34.59,34.59,0,0,0,1.21-5.07A7.64,7.64,0,0,0,221.39,90Zm-10.1-29.37c1.08,0,4.21,6,4.21,17.39s-3.13,17.4-4.21,17.4-4.22-6-4.22-17.4S210.2,60.65,211.29,60.65ZM198.11,80a3.5,3.5,0,1,1-3.49,3.5A3.5,3.5,0,0,1,198.11,80Zm3.69,10A7.63,7.63,0,0,0,204,88.22a36.53,36.53,0,0,0,.88,3.7A12.22,12.22,0,0,0,201.8,90.06Zm-13.51,24.39.16,0a118,118,0,0,0-14.21,13.63c-6,6.72-10,12.42-12.75,18-3.24,6.55-3.71,13.59-4.17,20.41-.09,1.26-.17,2.52-.27,3.78-.45,5.46-.76,10.45-1,15.24-1.49,36.64-1,73.58-.13,108.57a147.65,147.65,0,0,0-15.43,2l1.22-120.46v-.18c0-.15-1.13-15.38,8.34-27.47A141.34,141.34,0,0,1,188.29,114.45ZM136.56,293.93a133,133,0,0,1-9.71-18c-1.13-2.69-2.69-7.78-.4-11.67A4.88,4.88,0,0,1,128.9,262a3.43,3.43,0,0,1,2.92.45c2.14,1.26,4.64,5.36,4.25,7.82-.1.67-.43,1.47-2.07,1.84a2.07,2.07,0,0,1-2.29-1.24,1.69,1.69,0,0,1,.3-1.37,1.17,1.17,0,0,1,.85-.52,2,2,0,0,0,2-2,2,2,0,0,0-2-2,5.07,5.07,0,0,0-4,2.17,5.58,5.58,0,0,0-.9,4.87,6.07,6.07,0,0,0,7,4,8,8,0,0,0,1.88-.66Zm.33-32.16a11.72,11.72,0,0,0-3-2.75,8.41,8.41,0,0,0-1.21-.59,8.2,8.2,0,0,0,2.32-1.34,9.69,9.69,0,0,0,2-2.33Zm.32-31.31c-.62-4.05-1.33-8.44-2.05-12.94-2.65-16.37-5.94-36.75-4.27-41.2.6-1.61,1.22-2.22,1.57-2.26.8-.08,2.53,1.52,3.58,3.09.67,2,1.19,3.3,1.24,3.43a1.84,1.84,0,0,0,.43.6Zm8.5-95.2a82.49,82.49,0,0,1,29.68-17.15A148.16,148.16,0,0,0,147,145.45a45.32,45.32,0,0,0-9,23.18C136,159,135.52,144.65,145.71,135.26ZM163.36,314c-1.41.27-2.75.54-4.07.75-4.07.66-8.36,1.24-12.2.51a11.81,11.81,0,0,1-7.54-4.59c5.17,1.16,14.31,2.16,26.06,2.89Zm11-131.87c-1.27,36.78-1,89.36-.84,110.83-4.86.24-9.4.51-13.52.82-.89-34.86-1.35-71.64.13-108.09.2-4.74.5-9.67.94-15.07.11-1.28.19-2.56.28-3.85.45-6.71.88-13.06,3.77-18.9,2.57-5.2,6.43-10.62,12.15-17.06a109.39,109.39,0,0,1,16.85-15.57l1.17.11c-5.48,5.15-13.81,15.51-18,33.37C175.88,154.6,174.89,165.84,174.32,182.08Zm12.27,143.84c-.48,1.32-2,1.6-2.9,1.65a2.22,2.22,0,0,1-1.84-.48,3.56,3.56,0,0,1-.52-2.44,8.48,8.48,0,0,1,3.37-3.72C186.64,323,187,324.86,186.59,325.92Zm-1.29-9.83a16.67,16.67,0,0,0-3-1.79c2.53.09,5.13.16,7.78.23A25.76,25.76,0,0,0,185.3,316.09Zm7.08-23.81c-5.2.11-10.18.26-14.9.46-.17-21.54-.43-73.89.84-110.52.56-16,1.51-27,2.84-32.64C186,128.76,197,118.72,201,115.65l1.87.08c-3.41,5.55-8.59,16.89-10,36C191.24,174.15,192,258.67,192.38,292.28Zm4-.08c-.38-33.59-1.14-117.9.51-140.14,1.58-21.27,8-32.41,10.77-36.24h2V292.08C205.1,292.09,200.67,292.13,196.38,292.2Zm13.12,38.58a3.1,3.1,0,0,1-1-1.15,8.41,8.41,0,0,1-.64-6.41,5.51,5.51,0,0,1,1.54-2.3,6.21,6.21,0,0,1,1.16,2.1A9.4,9.4,0,0,1,209.5,330.78Zm.18-14.85a13.48,13.48,0,0,0-2.53-1.16h3.67a2,2,0,0,0,1.62,0h.11A18.68,18.68,0,0,0,209.68,315.93ZM206,108a9.83,9.83,0,0,0,3-8.67c0-.2-.07-.4-.11-.61a4.28,4.28,0,0,0,2.39.75,4.44,4.44,0,0,0,2.91-1.15c-.08.34-.14.69-.19,1a9.85,9.85,0,0,0,3,8.64C213.35,107.85,209.66,107.84,206,108ZM226.64,292.2c-4.22-.07-8.57-.11-13-.12V115.81l1.68,0c2.7,3.76,9.23,14.9,10.82,36.3C227.78,174.33,227,258.59,226.64,292.2Zm3,22.4c2.32-.05,4.61-.1,6.84-.17a17.38,17.38,0,0,0-2.71,1.65A26.24,26.24,0,0,0,229.61,314.6Zm8.06,9.9a3.69,3.69,0,0,1-.5,2.59,2.23,2.23,0,0,1-1.84.48c-.88-.05-2.42-.33-2.9-1.65-.38-1.06-.05-2.88,1.88-5C236.18,322.14,237.51,323.53,237.67,324.5Zm7.87-31.76c-4.72-.2-9.7-.35-14.9-.46.38-33.64,1.14-118.1-.52-140.48-1.43-19.24-6.65-30.59-10.06-36.12l1.85-.05c4,3,15.05,13,20,34,1.33,5.68,2.28,16.66,2.84,32.64C246,218.86,245.71,271.18,245.54,292.74Zm4,.17c.17-21.49.43-74-.84-110.8-.57-16.23-1.56-27.48-2.94-33.41-4.17-17.83-12.48-28.18-18-33.34l1.19-.09a108.71,108.71,0,0,1,16.8,15.52c5.72,6.45,9.58,11.87,12.15,17.07,2.89,5.84,3.32,12.18,3.77,18.9.09,1.28.17,2.56.28,3.84.44,5.41.74,10.34.94,15.07,1.48,36.45,1,73.21.13,108.06C258.94,293.42,254.4,293.15,249.54,292.91ZM280,313.77c-6.1,2.66-14.76,1.12-21.72-.12l-.8-.14c11.53-.72,20.53-1.7,25.72-2.84A7.81,7.81,0,0,1,280,313.77Zm-4-168.29a147.67,147.67,0,0,0-28.44-27.35,82.47,82.47,0,0,1,29.7,17.16c10.16,9.36,9.66,23.65,7.74,33.34A45.3,45.3,0,0,0,276.05,145.48Zm9.27,35.74a2,2,0,0,0,.42-.61c.05-.12.57-1.38,1.24-3.42,1-1.57,2.78-3.2,3.58-3.1.35,0,1,.65,1.57,2.26,1.67,4.45-1.62,24.83-4.27,41.21-.73,4.5-1.44,8.9-2.05,13Zm.74,73.86a8.46,8.46,0,0,0,4.3,3.4,8.51,8.51,0,0,0-1.18.57,11.61,11.61,0,0,0-3.05,2.76Zm10.52,9.25c2.28,3.88.72,9-.41,11.67a132.44,132.44,0,0,1-9.72,18l-.19-18.57a8.27,8.27,0,0,0,1.89.67,6.07,6.07,0,0,0,7-4,5.58,5.58,0,0,0-.9-4.87,5.09,5.09,0,0,0-4-2.16,2,2,0,0,0-2,1.95,2,2,0,0,0,2,2,1.18,1.18,0,0,1,.85.53,1.67,1.67,0,0,1,.3,1.37,2.07,2.07,0,0,1-2.29,1.23c-1.64-.36-2-1.17-2.07-1.83-.39-2.47,2.11-6.57,4.25-7.83C294,260.87,295.77,262.94,296.58,264.33Z"/></svg>
